<svg xmlns="http://www.w3.org/2000/svg" viewBox="0 0 16 16" fill="currentColor" aria-hidden="true">
  <path d="M11.777.972c-.364 1.054-1.195 2.322-2.798 2.83-.115.036-.115.36 0 .396 1.603.508 2.434 1.775 2.798 2.83.04.114.406.114.446 0 .364-1.055 1.195-2.322 2.798-2.83.115-.036.115-.36 0-.396-1.603-.508-2.434-1.776-2.798-2.83-.04-.114-.406-.114-.446 0zM5.295 4.5a.75.75 0 01.747.682c.06.65.334 1.68.954 2.572.606.87 1.527 1.596 2.927 1.75a.75.75 0 010 1.491c-1.4.154-2.321.88-2.927 1.751a5.683 5.683 0 00-.954 2.572.75.75 0 01-1.493 0 5.683 5.683 0 00-.954-2.572c-.606-.87-1.527-1.597-2.927-1.75a.75.75 0 010-1.492c1.4-.154 2.321-.88 2.927-1.75.62-.892.894-1.922.954-2.572a.75.75 0 01.746-.682z"/>
</svg>
